<svg xmlns="http://www.w3.org/2000/svg" version="1.1" xmlns:xlink="http://www.w3.org/1999/xlink" xmlns:svgjs="http://svgjs.dev/svgjs" width="345" height="281" viewBox="0 0 120 120" style="background: rgb(48, 28, 57);"><svg viewBox="0 0 112.5660171508789 134.9997100830078" width="65" height="65" x="27.5" y="27.5" style="fill: rgb(160, 215, 255);"><svg width="113" height="131" viewBox="0 0 113 131" xmlns="http://www.w3.org/2000/svg">
<path d="M77.4756 54.7809C74.2456 54.7809 71.6299 57.4011 71.6299 60.6266C71.6299 63.5725 73.8116 65.9813 76.6348 66.3958C77.3259 71.1082 77.4756 78.1078 73.7788 83.1942C70.5169 87.6792 64.703 89.9544 56.5044 89.9544C48.3058 89.9544 42.4929 87.6754 39.23 83.1942C35.5334 78.1078 35.683 71.1082 36.374 66.3958C39.1972 65.9815 41.3705 63.5725 41.3705 60.6266C41.3705 57.3966 38.7587 54.7809 35.5286 54.7809C32.2996 54.7809 29.6755 57.3976 29.6755 60.6266C29.6755 62.6821 30.7397 64.4738 32.3407 65.5222C31.5159 70.9339 31.2924 79.2421 35.9038 85.5834C39.983 91.202 46.9098 94.0494 56.5008 94.0494C66.0927 94.0494 73.0196 91.2017 77.0978 85.5834C81.7008 79.2421 81.4856 70.9377 80.6609 65.5222C82.2572 64.4739 83.3178 62.6821 83.3178 60.6266C83.3262 57.3976 80.7059 54.7809 77.4759 54.7809H77.4756Z"></path>
<path d="M112.34 112.032C110.118 100.36 101.167 43.9838 101.074 43.4092L100.692 40.9965H12.3142L11.9243 43.4092C11.8382 43.9825 2.88874 100.358 0.666837 112.032C-0.389912 117.532 0.419007 121.932 3.05527 125.113C6.46772 129.232 11.9196 130.097 15.8849 130.097H97.1119C101.081 130.097 106.537 129.232 109.942 125.113C112.579 121.932 113.387 117.529 112.338 112.032H112.34ZM105.523 121.457C103.435 123.988 99.3559 124.362 97.1134 124.362H15.8863C13.6475 124.362 9.56921 123.988 7.47634 121.457C5.98568 119.658 5.58731 116.842 6.30272 113.104C8.26937 102.749 15.4599 57.7184 17.2152 46.7369H95.8016C97.5644 57.828 104.711 102.606 106.714 113.104C107.413 116.837 107.026 119.653 105.523 121.457Z"></path>
<path d="M53.1738 16.6018C52.7147 14.3799 50.5414 12.9622 48.3269 13.4204L17.5803 19.8393C15.3621 20.3069 13.9397 22.4718 14.4035 24.6862L17.0771 37.5075H57.5362L53.1738 16.6018Z"></path>
<path d="M101.193 20.3593C102.034 18.2626 100.628 15.7405 98.0652 14.7249L62.4756 0.522585C59.9039 -0.493011 57.1573 0.372022 56.3165 2.46026L53.3474 9.92676C55.4637 11.1172 57.061 13.1812 57.5846 15.6789L62.1387 37.5077H94.3552L101.193 20.3593Z"></path>
</svg></svg><text fill="#a0d7ff" font-family="Helvetica" font-size="42px" x="60" y="92.5"><tspan dy="0" x="60"></tspan></text><text fill="#bee4ff" font-family="Impact" font-size="16px" x="60" y="92.5"><tspan dy="0" x="60"></tspan></text></svg>